<?xml version="1.0" encoding="UTF-8"?><svg id="Layer_2" xmlns="http://www.w3.org/2000/svg" xmlns:xlink="http://www.w3.org/1999/xlink" viewBox="0 0 788.16 866.27"><defs><style>.cls-1{stroke:#538cb7;stroke-miterlimit:10;stroke-width:2.36px;}.cls-1,.cls-2{fill:none;}.cls-2,.cls-3{stroke-width:0px;}.cls-4{clip-path:url(#clippath);}.cls-5{opacity:.21;}.cls-3{fill:#538cb7;}</style><clipPath id="clippath"><polygon class="cls-2" points="0 862.43 788.16 866.27 788.16 3.84 0 0 0 862.43"/></clipPath></defs><g id="BACKGROUND"><g class="cls-5"><g class="cls-4"><circle class="cls-3" cx="-3.4" cy="357.32" r="247.55" transform="translate(-253.66 102.25) rotate(-45)"/><circle class="cls-3" cx="259.06" cy="615.24" r="175.21" transform="translate(-359.16 363.38) rotate(-45)"/><circle class="cls-3" cx="288.59" cy="427.55" r="112.11" transform="translate(-217.8 329.29) rotate(-45)"/><circle class="cls-3" cx="524.64" cy="563.4" r="166.02" transform="translate(-244.72 535.99) rotate(-45)"/><circle class="cls-3" cx="328.05" cy="193.58" r="46.06" transform="translate(-44.06 112.21) rotate(-18.21)"/><circle class="cls-3" cx="420.54" cy="785.88" r="23.03" transform="translate(-441.56 1012.23) rotate(-76.56)"/><path class="cls-1" d="m715.05,502.52c-7.34-91.4-87.39-159.53-178.79-152.19-46.64,3.75-87.19,26.45-114.78,59.91,3.48-12.42,4.87-25.65,3.78-39.25-4.96-61.72-59.01-107.73-120.73-102.77-13.37,1.07-25.99,4.46-37.52,9.72C250.26,147.73,133.95,52.36,1.7,62.98c-136.28,10.95-237.87,130.3-226.92,266.58,10.95,136.28,130.3,237.87,266.58,226.92,24.45-1.96,47.77-7.43,69.53-15.85-2.07,13.31-2.67,27.05-1.54,41.06,7.75,96.45,92.23,168.36,188.68,160.61,64.74-5.2,118.37-44.99,144.33-99.74,32.31,27.33,75,42.4,120.51,38.74,91.4-7.34,159.53-87.39,152.19-178.78Z"/><circle class="cls-3" cx="420.54" cy="785.88" r="23.03" transform="translate(-441.56 1012.23) rotate(-76.56)"/></g></g></g></svg>