<?xml version="1.0" encoding="UTF-8"?>
<svg xmlns:xlink="http://www.w3.org/1999/xlink" id="Layer_2" xmlns="http://www.w3.org/2000/svg"
     viewBox="0 0 1920 866.27">
    <defs>
        <style>
            .cls-1,.cls-2{fill:#fff;}.cls-3{fill:#80a1af;}.cls-3,.cls-4,.cls-5,.cls-6,.cls-7,.cls-8,.cls-9,.cls-10,.cls-2,.cls-11,.cls-12,.cls-13,.cls-14{stroke-width:0px;}.cls-4{fill:#a55eea;}.cls-5,.cls-15{fill:#923ad8;}.cls-16{stroke-width:2.36px;}.cls-16,.cls-8,.cls-17,.cls-18{fill:none;}.cls-16,.cls-17{stroke:#538cb7;}.cls-16,.cls-17,.cls-18{stroke-miterlimit:10;}.cls-19{clip-path:url(#clippath-2);}.cls-20,.cls-7{fill:#e09841;}.cls-21,.cls-12{fill:#cee5f2;}.cls-6{fill:#d3ebf4;}.cls-22{clip-path:url(#clippath-7);}.cls-9{fill:#eebd4e;}.cls-23{clip-path:url(#clippath-1);}.cls-24{clip-path:url(#clippath-4);}.cls-10{fill:#6b2ca8;}.cls-25{clip-path:url(#clippath-9);}.cls-26{clip-path:url(#clippath);}.cls-11{fill:#21344f;}.cls-17{stroke-width:1.72px;}.cls-18{stroke:#fff;stroke-width:1.18px;}.cls-27{clip-path:url(#clippath-3);}.cls-28{opacity:.21;}.cls-29{clip-path:url(#clippath-8);}.cls-30{clip-path:url(#clippath-5);}.cls-13{fill:#7737b5;}.cls-31{clip-path:url(#clippath-10);}.cls-14{fill:#538cb7;}
        </style>
        <clipPath id="clippath">
            <polygon class="cls-8" points="1920 862.43 1131.84 866.27 1131.84 3.84 1920 0 1920 862.43"/>
        </clipPath>
        <clipPath id="clippath-1">
            <rect class="cls-8" y="482.83" width="623.76" height="381.64"/>
        </clipPath>
        <clipPath id="clippath-2">
            <path class="cls-7"
                  d="m840.35,377.37h16.58c1.2,0,2.17.97,2.17,2.17v6.07c0,2.81-2.28,5.09-5.09,5.09h-10.74c-2.81,0-5.09-2.28-5.09-5.09v-6.07c0-1.2.97-2.17,2.17-2.17Z"
                  transform="translate(200.36 -284.85) rotate(21.55)"/>
        </clipPath>
        <clipPath id="clippath-3">
            <rect class="cls-8" y="158.07" width="985.96" height="519.53"/>
        </clipPath>
        <clipPath id="clippath-4">
            <path class="cls-5"
                  d="m160.68,442.04S27.37,340.41-33.18,279.61c-5.07-5.09-11.89-8.04-19.07-8.32l-49.07-1.88c-3.71-.14-6.26,3.68-4.7,7.05L2.63,511.99l158.05-69.94Z"/>
        </clipPath>
        <clipPath id="clippath-5">
            <path class="cls-12"
                  d="m896.63,462.65l-5.97-10.26-528.3-69.73-4.02,19.18c18.77,45.98,30.36,109.35,30.36,109.35,43.56-9.88,99.83-19.28,163.45-27.14l-36.63,34.8,115.13-43.31c84.04-7.91,175.97-12.87,265.98-12.88Z"/>
        </clipPath>
        <clipPath id="clippath-7">
            <path class="cls-2"
                  d="m-40.35,491.45l700.63-255.09c25.35-9.23,52.52-12.32,79.29-9.02h0c19.47,2.4,37.96,9.88,53.63,21.68l5.27,3.97c11.8,8.89,14.81,25.34,6.93,37.84l-13.53,21.44c-19.6,31.07-48.76,54.92-83.1,67.98l-40.7,12.78c-38.15,11.98-74.36,29.39-107.7,51.46-20.85,13.8-45.29,28.35-67.38,35.95-30.85,10.62-153.13,45.56-221.19,66.36-30.86,9.43-63.36,12.17-95.36,8.04-75.08-9.7-213.92-27.56-245.01-30.9l28.22-32.47Z"/>
        </clipPath>
        <clipPath id="clippath-8">
            <path class="cls-5"
                  d="m-96.21,316.06S-2.92,435.21,125.17,424.27c128.09-10.94,301.2,54.29,99.35,61.36-324.65,11.37,104.47,251.27,104.47,251.27l-626.73-123.83-101.45-95.65-10.11-91.68,313.08-109.68Z"/>
        </clipPath>
        <clipPath id="clippath-9">
            <path class="cls-8"
                  d="m-40.35,491.45l700.63-255.09c25.35-9.23,52.52-12.32,79.29-9.02h0c19.47,2.4,37.96,9.88,53.63,21.68l5.27,3.97c11.8,8.89,14.81,25.34,6.93,37.84l-13.53,21.44c-19.6,31.07-48.76,54.92-83.1,67.98l-40.7,12.78c-38.15,11.98-74.36,29.39-107.7,51.46-20.85,13.8-45.29,28.35-67.38,35.95-30.85,10.62-153.13,45.56-221.19,66.36-30.86,9.43-63.36,12.17-95.36,8.04-75.08-9.7-213.92-27.56-245.01-30.9l28.22-32.47Z"/>
        </clipPath>
        <clipPath id="clippath-10">
            <path class="cls-12"
                  d="m426.92,358.52l-708.3-36.21-10.56,12.51c58.3,13.58,117.19,26.86,174.42,39.74l-53.59,45.12,95.1-35.78c11.06,2.49,22.03,4.96,32.9,7.42l-48.53,38.46,82.05-30.87c13.81,3.14,27.41,6.24,40.78,9.31l-36.69,34.86,71.33-26.84c97.65,22.78,179.8,43.6,230.4,61.68,0,0,106.22-30.64,146.92-84.6,2.96-3.92,4.5-8.74,4.37-13.65-.29-11.34-9.26-20.55-20.6-21.13Z"/>
        </clipPath>
    </defs>
    <g id="TEXTS">
        <g id="OBJECTS">
            <g class="cls-28">
                <g class="cls-26">
                    <circle class="cls-14" cx="1923.4" cy="357.32" r="247.55"
                            transform="translate(310.69 1464.71) rotate(-45)"/>
                    <circle class="cls-14" cx="1660.94" cy="615.24" r="175.21"
                            transform="translate(51.44 1354.66) rotate(-45)"/>
                    <circle class="cls-14" cx="1631.41" cy="427.55" r="112.11"
                            transform="translate(175.5 1278.81) rotate(-45)"/>
                    <circle class="cls-14" cx="1395.36" cy="563.4" r="166.02"
                            transform="translate(10.31 1151.68) rotate(-45)"/>
                    <circle class="cls-14" cx="1591.95" cy="193.58" r="46.06"
                            transform="translate(910.57 1645.3) rotate(-71.79)"/>
                    <circle class="cls-14" cx="1499.46" cy="785.88" r="23.03"
                            transform="translate(-141.6 370.05) rotate(-13.44)"/>
                    <path class="cls-16"
                          d="m1204.95,502.52c7.34-91.4,87.39-159.53,178.79-152.19,46.64,3.75,87.19,26.45,114.78,59.91-3.48-12.42-4.87-25.65-3.78-39.25,4.96-61.72,59.01-107.73,120.73-102.77,13.37,1.07,25.99,4.46,37.52,9.72,16.76-130.2,133.07-225.58,265.32-214.95,136.28,10.95,237.87,130.3,226.92,266.58-10.95,136.28-130.3,237.87-266.58,226.92-24.45-1.96-47.77-7.43-69.53-15.85,2.07,13.31,2.67,27.05,1.54,41.06-7.75,96.45-92.23,168.36-188.68,160.61-64.74-5.2-118.37-44.99-144.33-99.74-32.31,27.33-75,42.4-120.51,38.74-91.4-7.34-159.53-87.39-152.19-178.78Z"/>
                    <circle class="cls-14" cx="1499.46" cy="785.88" r="23.03"
                            transform="translate(-141.6 370.05) rotate(-13.44)"/>
                </g>
            </g>
            <g class="cls-23">
                <path class="cls-2"
                      d="m458.15,946.13c-64.69,8.2-319.8-78.58-374.58-71.63-96.46,12.23-184.57-56.04-196.8-152.5-12.23-96.46,56.04-184.57,152.5-196.8,93.61-11.87,179.36,52.09,195.52,144.04,8.02-4.11,16.88-6.93,26.34-8.13,43.68-5.54,83.59,25.38,89.13,69.07,1.22,9.63.67,19.07-1.4,28.01,18.5-24.67,46.57-42.13,79.58-46.32,64.69-8.2,123.78,37.59,131.99,102.28s-37.59,123.78-102.28,131.99Z"/>
                <circle class="cls-2" cx="281.64" cy="607.84" r="32.75"
                        transform="translate(-140.2 87.41) rotate(-14.17)"/>
                <path class="cls-18"
                      d="m42.56,507.65c93.61-11.87,179.36,52.09,195.52,144.04,8.02-4.11,16.88-6.93,26.34-8.13,43.68-5.54,83.59,25.38,89.13,69.07,1.22,9.61.67,19.04-1.39,27.95,18.51-24.65,46.58-42.08,79.57-46.26,64.69-8.2,123.78,37.59,131.99,102.28,8.2,64.69-37.59,123.78-102.28,131.99-64.69,8.2-123.78-37.59-131.99-102.28-2.24-17.64-.45-34.87,4.63-50.76-12.37,13.96-29.65,23.67-49.6,26.2-27.37,3.47-53.26-7.38-70.14-26.71-27.02,43.53-72.7,74.95-127.48,81.9-96.46,12.23-184.57-56.04-196.8-152.5-12.23-96.46,56.04-184.57,152.5-196.8Z"/>
                <circle class="cls-18" cx="284.93" cy="590.3" r="32.75"
                        transform="translate(-368.2 534.94) rotate(-59.39)"/>
            </g>
            <path class="cls-7"
                  d="m397.02,198.49c-6-15.05-20.87-23.91-36.21-22.98l-.68-1.71-10.65,4.24c-18.77,7.48-27.93,28.76-20.45,47.53,8.33,20.93,37.7,36.1,51.4,43.51,4.13,2.23,9.04,2.51,13.4.77l3.93-1.57-4.08-10.24c4.54-17.61,9.48-44.12,3.33-59.56Z"/>
            <path class="cls-9"
                  d="m339.68,221.33c8.28,20.79,38.63,39.18,52.46,46.68,3.62,1.96,8.12.12,9.3-3.82,4.62-15.4,13.77-50.99,6.22-69.94-7.48-18.77-28.76-27.93-47.53-20.45-18.77,7.48-27.93,28.76-20.45,47.53Z"/>
            <circle class="cls-6" cx="374.14" cy="208.96" r="26.06" transform="translate(-21.33 43.9) rotate(-6.53)"/>
            <ellipse class="cls-2" cx="371" cy="210.21" rx="22.69" ry="26.06"
                     transform="translate(-51.45 152.2) rotate(-21.72)"/>
            <polygon class="cls-13" points="533.61 652.31 464.04 561.03 532.67 626.85 533.61 652.31"/>
            <polygon class="cls-4" points="572.61 600.2 482.99 645.37 464.04 561.03 572.61 600.2"/>
            <polygon class="cls-5" points="542.67 615.29 464.04 561.03 522.88 625.26 533.61 652.31 542.67 615.29"/>
            <rect class="cls-7" x="844.84" y="363.73" width="1.72" height="14.79"
                  transform="translate(195.4 -284.66) rotate(21.55)"/>
            <rect class="cls-7" x="858.92" y="369.29" width="1.72" height="14.79"
                  transform="translate(198.44 -289.46) rotate(21.55)"/>
            <rect class="cls-7" x="851.78" y="366.47" width="1.72" height="14.79"
                  transform="translate(196.91 -287.03) rotate(21.55)"/>
            <path class="cls-20"
                  d="m840.35,377.37h16.58c1.2,0,2.17.97,2.17,2.17v6.07c0,2.81-2.28,5.09-5.09,5.09h-10.74c-2.81,0-5.09-2.28-5.09-5.09v-6.07c0-1.2.97-2.17,2.17-2.17Z"
                  transform="translate(200.36 -284.85) rotate(21.55)"/>
            <g class="cls-19">
                <path class="cls-9"
                      d="m839.57,374.08h16.58c1.2,0,2.17.97,2.17,2.17v6.07c0,2.81-2.28,5.09-5.09,5.09h-10.74c-2.81,0-5.09-2.28-5.09-5.09v-6.07c0-1.2.97-2.17,2.17-2.17Z"
                      transform="translate(199.09 -284.79) rotate(21.55)"/>
            </g>
            <path class="cls-9"
                  d="m845.41,367.54l16.82,6.64c11.45-10.53,28.9-9.57,36.11-27.82,6.57-16.65-3.04-31.8-19.69-38.37-16.65-6.57-34.02-2.08-40.6,14.57-7.36,18.65,5.89,30.95,7.36,44.98Z"/>
            <path class="cls-7"
                  d="m848.52,368.77l10.61,4.19c9.12-11.45,20.87-12.74,28.08-30.99,6.57-16.65,1.94-29.83-8.55-33.98-10.5-4.15-22.89,2.32-29.46,18.97-7.36,18.65.1,28.66-.67,41.81Z"/>
            <path class="cls-9"
                  d="m851.42,369.91l4.82,1.9c6.95-12.31,13.39-15.69,20.6-33.94,6.57-16.65,6.59-28,1.82-29.88s-12.51,6.41-19.09,23.06c-7.36,18.65-5.29,26.53-8.15,38.86Z"/>
            <g class="cls-27">
                <path class="cls-15"
                      d="m160.68,442.04S27.37,340.41-33.18,279.61c-5.07-5.09-11.89-8.04-19.07-8.32l-49.07-1.88c-3.71-.14-6.26,3.68-4.7,7.05L2.63,511.99l158.05-69.94Z"/>
                <g class="cls-24">
                    <path class="cls-10"
                          d="m146.34,441.81c-72,7.88-222.83-6.06-233.94-179.9-11.11-173.84-223.8-77.19-223.8-77.19l-42.36,207.01s57.19,113.18,73.46,127.44c16.27,14.26,128.59,53.26,128.59,53.26l226.77-69.3,71.27-61.32Z"/>
                </g>
                <polygon class="cls-12" points="830.04 463.81 896.63 462.65 932.17 403.49 911.1 404.03 830.04 463.81"/>
                <path class="cls-21"
                      d="m896.63,462.65l-5.97-10.26-528.3-69.73-4.02,19.18c18.77,45.98,30.36,109.35,30.36,109.35,43.56-9.88,99.83-19.28,163.45-27.14l-36.63,34.8,115.13-43.31c84.04-7.91,175.97-12.87,265.98-12.88Z"/>
                <g class="cls-30">
                    <path class="cls-3"
                          d="m917.4,474.75l-5.97-10.26-528.3-69.73-4.02,19.18c18.77,45.98,30.36,109.35,30.36,109.35,43.56-9.88,107.87-20.62,171.49-28.47l-44.67,36.13,115.13-43.31c84.04-7.91,175.96-12.87,265.98-12.88Z"/>
                </g>
                <path class="cls-1"
                      d="m-40.35,491.45l700.63-255.09c25.35-9.23,52.52-12.32,79.29-9.02h0c19.47,2.4,37.96,9.88,53.63,21.68l5.27,3.97c11.8,8.89,14.81,25.34,6.93,37.84l-13.53,21.44c-19.6,31.07-48.76,54.92-83.1,67.98l-40.7,12.78c-38.15,11.98-74.36,29.39-107.7,51.46-20.85,13.8-45.29,28.35-67.38,35.95-30.85,10.62-153.13,45.56-221.19,66.36-30.86,9.43-63.36,12.17-95.36,8.04-75.08-9.7-213.92-27.56-245.01-30.9l28.22-32.47Z"/>
                <path class="cls-1"
                      d="m-40.35,491.45l700.63-255.09c25.35-9.23,52.52-12.32,79.29-9.02h0c19.47,2.4,37.96,9.88,53.63,21.68l5.27,3.97c11.8,8.89,14.81,25.34,6.93,37.84l-13.53,21.44c-19.6,31.07-48.76,54.92-83.1,67.98l-40.7,12.78c-38.15,11.98-74.36,29.39-107.7,51.46-20.85,13.8-45.29,28.35-67.38,35.95-30.85,10.62-153.13,45.56-221.19,66.36-30.86,9.43-63.36,12.17-95.36,8.04-75.08-9.7-213.92-27.56-245.01-30.9l28.22-32.47Z"/>
                <g class="cls-22">
                    <path class="cls-12"
                          d="m-87,570.7l469.76-184.59c35.21-13.84,72.17-22.74,109.82-26.47l30.93-3.06c28.73-2.84,57.08-8.7,84.59-17.49l128.51-41.06c31.65-10.11,52.61-40.16,51.18-73.35l-.14-3.25,78.91,158.83-303.83,293.98-528.59,33.86-121.15-137.41Z"/>
                    <path class="cls-15"
                          d="m-96.21,316.06S-2.92,435.21,125.17,424.27c128.09-10.94,301.2,54.29,99.35,61.36-324.65,11.37,104.47,251.27,104.47,251.27l-626.73-123.83-101.45-95.65-10.11-91.68,313.08-109.68Z"/>
                    <g class="cls-29">
                        <path class="cls-10"
                              d="m295.31,441.92c-39,10.15-260.8-61.58-320.36,131.72-59.55,193.29,301.61,128.52,301.61,128.52l70.27-144.41-51.52-115.82Z"/>
                    </g>
                </g>
                <path class="cls-12"
                      d="m605.08,491.94c4.32,18.37,34.36,54.47,117.49,5.59l-29.58-86.02s-101.3,23.47-87.91,80.43Z"/>
                <ellipse class="cls-3" cx="702.95" cy="456.67" rx="40.57" ry="46.51"
                         transform="translate(-11.37 18) rotate(-1.46)"/>
                <ellipse class="cls-11" cx="702.95" cy="456.67" rx="34.38" ry="39.41"
                         transform="translate(-11.37 18.01) rotate(-1.46)"/>
                <polygon class="cls-12" points="38.85 504.05 114.38 471.63 -158.74 473.73 -202.29 482.73 38.85 504.05"/>
                <path class="cls-11"
                      d="m771.67,261.28l-24.5,3.3c-1.61.22-3.16-.68-3.78-2.18l-4.16-10.18c-.88-2.15.5-4.55,2.79-4.88l23.06-3.31c1.47-.21,2.92.51,3.63,1.81l5.6,10.18c1.21,2.19-.17,4.92-2.65,5.25Z"/>
                <path class="cls-11"
                      d="m728.15,268.29l9.71-1.72c1.61-.29,2.61-1.92,2.11-3.49l-3.82-12.1c-.43-1.37-1.85-2.16-3.24-1.81h0c-.82.21-1.51.79-1.84,1.57l-5.89,13.82c-.84,1.98.85,4.11,2.97,3.73Z"/>
                <g class="cls-25">
                    <path class="cls-11"
                          d="m803.86,261.05l-22.69-.93c-.85-.03-1.62-.52-2.02-1.27l-6.46-12.07c-.85-1.59.29-3.51,2.09-3.54l20.57-.28c.83-.01,1.6.4,2.05,1.1l8.57,13.28c1.06,1.64-.17,3.79-2.12,3.71Z"/>
                </g>
                <path class="cls-21"
                      d="m426.92,358.52l-708.3-36.21-10.56,12.51c58.3,13.58,117.19,26.86,174.42,39.74l-53.59,45.12,95.1-35.78c11.06,2.49,22.03,4.96,32.9,7.42l-48.53,38.46,82.05-30.87c13.81,3.14,27.41,6.24,40.78,9.31l-36.69,34.86,71.33-26.84c97.65,22.78,179.8,43.6,230.4,61.68,0,0,106.22-30.64,146.92-84.6,2.96-3.92,4.5-8.74,4.37-13.65-.29-11.34-9.26-20.55-20.6-21.13Z"/>
                <g class="cls-31">
                    <path class="cls-3"
                          d="m427.23,370.75l-739.84-35.41,20.97,11.7c58.3,13.58,117.19,26.86,174.42,39.74l-53.59,45.12,95.1-35.78c11.06,2.49,22.03,4.96,32.9,7.42l-48.53,38.46,82.05-30.87c13.81,3.14,27.41,6.24,40.78,9.31l-36.69,34.86,71.33-26.84c97.65,22.78,179.8,43.6,230.4,61.68,0,0,106.22-30.64,146.92-84.6,2.96-3.92,4.5-8.74,4.37-13.65-.29-11.34-9.26-20.55-20.6-21.13Z"/>
                </g>
                <path class="cls-12"
                      d="m134.38,430.16c4.97,21.17,39.61,62.79,135.43,6.44l-34.1-99.15s-116.77,27.06-101.34,92.71Z"/>
                <ellipse class="cls-3" cx="247.19" cy="389.51" rx="46.77" ry="53.61"
                         transform="translate(-9.81 6.4) rotate(-1.46)"/>
                <ellipse class="cls-11" cx="247.19" cy="389.51" rx="39.63" ry="45.43"
                         transform="translate(-9.81 6.4) rotate(-1.46)"/>
                <path class="cls-11"
                      d="m466.31,369.49l-2.62.97c-1.33.49-2.8-.25-3.19-1.62l-1.74-6.18c-.34-1.21.3-2.48,1.47-2.93l2.38-.91c1.3-.5,2.75.2,3.18,1.52l1.99,6.12c.4,1.24-.24,2.58-1.47,3.03Z"/>
                <path class="cls-11"
                      d="m476.98,365.41l-2.62.97c-1.33.49-2.8-.25-3.19-1.62l-1.74-6.18c-.34-1.21.3-2.48,1.47-2.93l2.38-.91c1.3-.5,2.75.2,3.18,1.52l1.99,6.12c.4,1.24-.24,2.58-1.47,3.03Z"/>
                <path class="cls-11"
                      d="m487.45,361.14l-2.62.97c-1.33.49-2.8-.25-3.19-1.62l-1.74-6.18c-.34-1.21.3-2.48,1.47-2.93l2.38-.91c1.3-.5,2.75.2,3.18,1.52l1.99,6.12c.4,1.24-.24,2.58-1.47,3.03Z"/>
                <path class="cls-11"
                      d="m497.73,357.54l-2.62.97c-1.33.49-2.8-.25-3.19-1.62l-1.74-6.18c-.34-1.21.3-2.48,1.47-2.93l2.38-.91c1.3-.5,2.75.2,3.18,1.52l1.99,6.12c.4,1.24-.24,2.58-1.47,3.03Z"/>
                <path class="cls-11"
                      d="m508.41,353.47l-2.62.97c-1.33.49-2.8-.25-3.19-1.62l-1.74-6.18c-.34-1.21.3-2.48,1.47-2.93l2.38-.91c1.3-.5,2.75.2,3.18,1.52l1.99,6.12c.4,1.24-.24,2.58-1.47,3.03Z"/>
                <path class="cls-11"
                      d="m518.87,349.2l-2.62.97c-1.33.49-2.8-.25-3.19-1.62l-1.75-6.18c-.34-1.21.3-2.48,1.47-2.93l2.38-.91c1.3-.5,2.75.2,3.18,1.52l1.99,6.12c.4,1.24-.24,2.58-1.47,3.03Z"/>
                <path class="cls-11"
                      d="m528.9,345.48l-2.62.97c-1.33.49-2.8-.25-3.19-1.62l-1.74-6.18c-.34-1.21.3-2.48,1.47-2.93l2.38-.91c1.3-.5,2.75.2,3.18,1.52l1.99,6.12c.4,1.24-.24,2.58-1.47,3.03Z"/>
                <path class="cls-11"
                      d="m539.58,341.41l-2.62.97c-1.33.49-2.8-.25-3.19-1.62l-1.74-6.18c-.34-1.21.3-2.48,1.47-2.93l2.38-.91c1.3-.5,2.75.2,3.18,1.52l1.99,6.12c.4,1.24-.24,2.58-1.47,3.03Z"/>
                <path class="cls-11"
                      d="m550.04,337.14l-2.62.97c-1.33.49-2.8-.25-3.19-1.62l-1.74-6.18c-.34-1.21.3-2.48,1.47-2.93l2.38-.91c1.3-.5,2.75.2,3.18,1.52l1.99,6.12c.4,1.24-.24,2.58-1.47,3.03Z"/>
                <path class="cls-11"
                      d="m569.77,328.7l-2.62.97c-1.33.49-2.8-.25-3.19-1.62l-1.74-6.18c-.34-1.21.3-2.48,1.47-2.93l2.38-.91c1.3-.5,2.75.2,3.18,1.52l1.99,6.12c.4,1.24-.24,2.58-1.47,3.03Z"/>
                <path class="cls-11"
                      d="m580.44,324.63l-2.62.97c-1.33.49-2.8-.25-3.19-1.62l-1.74-6.18c-.34-1.21.3-2.48,1.47-2.93l2.38-.91c1.3-.5,2.75.2,3.18,1.52l1.99,6.12c.4,1.24-.24,2.58-1.47,3.03Z"/>
                <path class="cls-11"
                      d="m590.9,320.36l-2.62.97c-1.33.49-2.8-.25-3.19-1.62l-1.75-6.18c-.34-1.21.3-2.48,1.47-2.93l2.38-.91c1.3-.5,2.75.2,3.18,1.52l1.99,6.12c.4,1.24-.24,2.58-1.47,3.03Z"/>
                <path class="cls-11"
                      d="m601.19,316.76l-2.62.97c-1.33.49-2.8-.25-3.19-1.62l-1.74-6.18c-.34-1.21.3-2.48,1.47-2.93l2.38-.91c1.3-.5,2.75.2,3.18,1.52l1.99,6.12c.4,1.24-.24,2.58-1.47,3.03Z"/>
                <path class="cls-11"
                      d="m611.86,312.68l-2.62.97c-1.33.49-2.8-.25-3.19-1.62l-1.75-6.18c-.34-1.21.3-2.48,1.47-2.93l2.38-.91c1.3-.5,2.75.2,3.18,1.52l1.99,6.12c.4,1.24-.24,2.58-1.47,3.03Z"/>
                <path class="cls-11"
                      d="m622.33,308.41l-2.62.97c-1.33.49-2.8-.25-3.19-1.62l-1.74-6.18c-.34-1.21.3-2.48,1.47-2.93l2.38-.91c1.3-.5,2.75.2,3.18,1.52l1.99,6.12c.4,1.24-.24,2.58-1.47,3.03Z"/>
                <path class="cls-11"
                      d="m632.36,304.69l-2.62.97c-1.33.49-2.8-.25-3.19-1.62l-1.75-6.18c-.34-1.21.3-2.48,1.47-2.93l2.38-.91c1.3-.5,2.75.2,3.18,1.52l1.99,6.12c.4,1.24-.24,2.58-1.47,3.03Z"/>
                <path class="cls-11"
                      d="m643.04,300.62l-2.62.97c-1.33.49-2.8-.25-3.19-1.62l-1.75-6.18c-.34-1.21.3-2.48,1.47-2.93l2.38-.91c1.3-.5,2.75.2,3.18,1.52l1.99,6.12c.4,1.24-.24,2.58-1.47,3.03Z"/>
                <path class="cls-11"
                      d="m653.5,296.35l-2.62.97c-1.33.49-2.8-.25-3.19-1.62l-1.75-6.18c-.34-1.21.3-2.48,1.47-2.93l2.38-.91c1.3-.5,2.75.2,3.18,1.52l1.99,6.12c.4,1.24-.24,2.58-1.47,3.03Z"/>
                <path class="cls-17"
                      d="m752.85,215.75s-34.88-18.39-82.12-6.84c-23.56,5.76-309.31,115.24-309.31,115.24"/>
                <path class="cls-17"
                      d="m340.6,332.5h-35.23c-3.29,0-6.47-1.14-9.01-3.23-6.31-5.2-20.43-14.83-38.34-14.83s-29.63,7.49-35.24,11.83c-2.54,1.96-5.69,2.96-8.9,2.88l-77.15-1.81"/>
            </g>
        </g>
    </g>
</svg>