<?xml version="1.0" encoding="UTF-8"?><svg xmlns="http://www.w3.org/2000/svg" xmlns:xlink="http://www.w3.org/1999/xlink" viewBox="0 0 1200 628"><defs><style>.cls-1{letter-spacing:0em;}.cls-2{letter-spacing:-.03em;}.cls-3{letter-spacing:0em;}.cls-4{stroke:#80a1af;stroke-width:2.75px;}.cls-4,.cls-5,.cls-6,.cls-7{fill:none;}.cls-4,.cls-5,.cls-7{stroke-miterlimit:10;}.cls-8,.cls-9,.cls-10,.cls-11,.cls-12{fill:#fff;}.cls-13,.cls-14,.cls-15,.cls-16,.cls-17,.cls-18,.cls-19,.cls-6,.cls-20,.cls-21,.cls-9,.cls-22,.cls-23,.cls-24,.cls-25,.cls-26{stroke-width:0px;}.cls-13,.cls-27{fill:#80a1af;}.cls-14,.cls-16,.cls-28{opacity:.38;}.cls-14,.cls-23{fill:#cee5f2;}.cls-15{fill:#a55eea;}.cls-16,.cls-28{fill:#eefaff;}.cls-29{opacity:.5;}.cls-30{font-family:Montserrat-Medium, Montserrat;font-size:18.5px;font-weight:500;letter-spacing:.6em;}.cls-31{letter-spacing:0em;}.cls-17{fill:#923ad8;}.cls-32{letter-spacing:-.01em;}.cls-33{letter-spacing:0em;}.cls-34{letter-spacing:0em;}.cls-35{letter-spacing:0em;}.cls-36{clip-path:url(#clippath-2);}.cls-37,.cls-19{fill:#e09841;}.cls-38{font-size:38.79px;}.cls-38,.cls-20{fill:#75c392;}.cls-38,.cls-10,.cls-39,.cls-11{font-weight:700;}.cls-38,.cls-10,.cls-11{font-family:Montserrat-ExtraBold, Montserrat;}.cls-40{clip-path:url(#clippath-6);}.cls-5{stroke:#fff;stroke-width:1.43px;}.cls-18{fill:#d3ebf4;}.cls-41{letter-spacing:-.02em;}.cls-42{letter-spacing:-.02em;}.cls-43{letter-spacing:-.03em;}.cls-44{clip-path:url(#clippath-7);}.cls-21{fill:#eebd4e;}.cls-45{letter-spacing:0em;}.cls-46{clip-path:url(#clippath-1);}.cls-47{clip-path:url(#clippath-4);}.cls-48{opacity:.19;}.cls-10{font-size:49.48px;}.cls-39{font-family:Montserrat-ExtraBoldItalic, Montserrat;font-size:27.74px;font-style:italic;}.cls-49{letter-spacing:-.03em;}.cls-50{letter-spacing:0em;}.cls-51{clip-path:url(#clippath-9);}.cls-52,.cls-25{fill:#88c1ed;}.cls-53{clip-path:url(#clippath);}.cls-54{letter-spacing:0em;}.cls-22{fill:#21344f;}.cls-55{letter-spacing:-.01em;}.cls-7{stroke:#538cb7;stroke-width:.98px;}.cls-11{font-size:28.8px;}.cls-56{clip-path:url(#clippath-3);}.cls-57{clip-path:url(#clippath-8);}.cls-58{letter-spacing:0em;}.cls-59{clip-path:url(#clippath-5);}.cls-24{fill:#7737b5;}.cls-12{font-family:Montserrat-SemiBold, Montserrat;font-size:19.29px;font-weight:600;}.cls-60{letter-spacing:0em;}.cls-26{fill:#538cb7;}.cls-61{letter-spacing:0em;}.cls-62{letter-spacing:0em;}</style><clipPath id="clippath"><rect class="cls-6" x="353.09" y="162" width="351.74" height="360.14"/></clipPath><clipPath id="clippath-1"><rect class="cls-13" x="86.94" y="68.61" width="351.94" height="474.61" rx="135.85" ry="135.85"/></clipPath><clipPath id="clippath-2"><rect class="cls-25" x="142.15" y="119.32" width="241.51" height="373.18" rx="104.51" ry="104.51"/></clipPath><clipPath id="clippath-3"><rect class="cls-6" x="142.15" y="192.46" width="241.51" height="208.02"/></clipPath><clipPath id="clippath-4"><path class="cls-16" d="m142.25,337.79s59.59,16.56,59.59,26.74-81.76,19.81-127.81,0c-46.05-19.81,68.22-26.74,68.22-26.74Z"/></clipPath><clipPath id="clippath-5"><path class="cls-9" d="m168.86,338.21c-13.53,7.91-47.91,15.23-32.9,37.96,15.01,22.73,79.4,24.18,79.4,24.18l5.33-39.38-51.82-22.75"/></clipPath><clipPath id="clippath-6"><path class="cls-16" d="m263.01,304.05s50.87,16.13,50.87,24.59c0,7.76-60.24,14.59-94.17,0-33.93-14.59,43.3-24.59,43.3-24.59Z"/></clipPath><clipPath id="clippath-7"><path class="cls-9" d="m288.44,307.14c-13.53,7.91-47.91,15.23-32.9,37.95,15.01,22.73,79.4,24.18,79.4,24.18l5.33-39.38-51.82-22.75"/></clipPath><clipPath id="clippath-8"><path class="cls-9" d="m-13,302.87s295.27-13.72,302.82-13.72,38.13,4.4,38.13,4.4c-12.25,7.77-294.25,79.01-340.94,93.72v-84.4Z"/></clipPath><clipPath id="clippath-9"><path class="cls-19" d="m415.35,543.67h34.95c2.52,0,4.57,2.05,4.57,4.57v12.79c0,5.92-4.8,10.72-10.72,10.72h-22.64c-5.92,0-10.72-4.8-10.72-10.72v-12.79c0-2.52,2.05-4.57,4.57-4.57Z" transform="translate(113 -71.64) rotate(10.88)"/></clipPath></defs><g id="BACKGROUND"><rect class="cls-22" width="1200" height="628"/></g><g id="OBJECTS"><g class="cls-48"><g class="cls-53"><circle class="cls-26" cx="351.67" cy="311.21" r="103.37" transform="translate(-117.06 339.82) rotate(-45)"/><circle class="cls-26" cx="461.28" cy="418.92" r="73.16" transform="translate(-140.18 256.06) rotate(-27.09)"/><circle class="cls-26" cx="473.61" cy="340.55" r="46.82" transform="translate(52.58 744.29) rotate(-79.52)"/><circle class="cls-26" cx="572.18" cy="397.27" r="69.33" transform="translate(-113.33 520.95) rotate(-45)"/><circle class="cls-26" cx="490.09" cy="242.84" r="19.23"/><path class="cls-26" d="m519.12,490.95c.43,5.29,5.06,9.24,10.36,8.82,5.29-.43,9.24-5.06,8.82-10.36-.43-5.29-5.06-9.24-10.36-8.82-5.29.43-9.24,5.06-8.82,10.36Z"/><path class="cls-7" d="m651.69,371.85c-3.07-38.17-36.49-66.62-74.66-63.55-19.48,1.57-36.41,11.05-47.93,25.02,1.45-5.18,2.03-10.71,1.58-16.39-2.07-25.77-24.64-44.99-50.42-42.92-5.58.45-10.85,1.86-15.67,4.06-7-54.37-55.57-94.2-110.8-89.76-56.91,4.57-99.33,54.41-94.76,111.32,4.57,56.91,54.41,99.33,111.32,94.76,10.21-.82,19.95-3.1,29.04-6.62-.86,5.56-1.11,11.3-.64,17.15,3.24,40.28,38.51,70.31,78.79,67.07,27.03-2.17,49.43-18.79,60.27-41.65,13.49,11.41,31.32,17.71,50.32,16.18,38.17-3.07,66.62-36.49,63.55-74.66Z"/><path class="cls-26" d="m519.12,490.95c.43,5.29,5.06,9.24,10.36,8.82,5.29-.43,9.24-5.06,8.82-10.36-.43-5.29-5.06-9.24-10.36-8.82-5.29.43-9.24,5.06-8.82,10.36Z"/></g></g><rect class="cls-27" x="86.94" y="68.61" width="351.94" height="474.61" rx="135.85" ry="135.85"/><g class="cls-46"><path class="cls-23" d="m296.68,248.58s91.24,2.25,142.2,53.9c50.96,51.66,75.67,154.23,75.67,154.23l-163.96,135.51-76.1-2.25s-67.19-31.85-86.51-115.5c-19.32-83.65,49.56-163.76,49.56-163.76l59.15-62.14Z"/></g><rect class="cls-14" x="115.55" y="91.49" width="293.96" height="424.11" rx="118.1" ry="118.1"/><rect class="cls-4" x="115.55" y="91.49" width="293.96" height="424.11" rx="118.1" ry="118.1"/><rect class="cls-52" x="142.15" y="119.32" width="241.51" height="373.18" rx="104.51" ry="104.51"/><g class="cls-36"><circle class="cls-9" cx="402.86" cy="409.52" r="84.8" transform="translate(-171.58 404.81) rotate(-45)"/><circle class="cls-9" cx="312.95" cy="497.88" r="60.02" transform="translate(-54.3 38.59) rotate(-6.49)"/><circle class="cls-9" cx="302.83" cy="433.58" r="38.41" transform="translate(-165.51 187.91) rotate(-27.39)"/><circle class="cls-9" cx="221.97" cy="480.12" r="56.87" transform="translate(-281.01 643.81) rotate(-83.22)"/><path class="cls-9" d="m304.53,370.9c-.43,5.34-5.1,9.32-10.44,8.89s-9.32-5.1-8.89-10.44c.43-5.34,5.1-9.32,10.44-8.89,5.34.43,9.32,5.1,8.89,10.44Z"/><circle class="cls-9" cx="257.63" cy="556.33" r="7.89" transform="translate(-352.83 613.11) rotate(-70.47)"/></g><g class="cls-56"><path class="cls-28" d="m142.25,337.79s59.59,16.56,59.59,26.74-81.76,19.81-127.81,0c-46.05-19.81,68.22-26.74,68.22-26.74Z"/><g class="cls-47"><path class="cls-8" d="m168.86,338.21c-13.53,7.91-47.91,15.23-32.9,37.96,15.01,22.73,79.4,24.18,79.4,24.18l5.33-39.38-51.82-22.75"/><g class="cls-59"><g class="cls-29"><path class="cls-13" d="m161.82,380.94c-1.54-13.53-1.65-21.73,2.2-26.32,4.16-4.96,12.48-5.7,28.05-6.66l.06.91c-14.88.92-23.5,1.67-27.41,6.34-3.64,4.34-3.51,12.36-1.99,25.63l-.91.1Z"/></g></g></g><path class="cls-28" d="m263.01,304.05s50.87,16.13,50.87,24.59c0,7.76-60.24,14.59-94.17,0-33.93-14.59,43.3-24.59,43.3-24.59Z"/><g class="cls-40"><path class="cls-8" d="m288.44,307.14c-13.53,7.91-47.91,15.23-32.9,37.95,15.01,22.73,79.4,24.18,79.4,24.18l5.33-39.38-51.82-22.75"/><g class="cls-44"><g class="cls-29"><path class="cls-13" d="m283.6,347.7c-1.54-13.53-1.65-21.73,2.2-26.32,4.16-4.96,12.48-5.7,28.05-6.66l.06.91c-14.88.92-23.5,1.67-27.41,6.34-3.64,4.34-3.51,12.36-1.99,25.63l-.91.1Z"/></g></g></g><path class="cls-17" d="m286.64,304.05s25.04-6.43,39.73-9.69c11.93-2.65,28.53-51.98,34.34-70.38.83-2.64-1.86-5.02-4.38-3.86l-8.3,3.83c-3.42,1.58-6.23,4.22-8.02,7.53-8.08,14.95-33.61,58.01-59.68,58.01l6.3,14.56Z"/><path class="cls-8" d="m-13,302.87s295.27-13.72,302.82-13.72,38.13,4.4,38.13,4.4c-12.25,7.77-294.25,79.01-340.94,93.72v-84.4Z"/><g class="cls-57"><path class="cls-16" d="m289.82,289.15s4.98.03,4.84,6.47c-.14,6.44-19.46,14.03-29.25,29.56-19.95,31.66,70.08,40.03,70.08,40.03l25.37-44.57,4.41-35.26-75.45,3.77"/><g class="cls-29"><path class="cls-13" d="m-30.1,345.81l-.19-.89c.29-.06,28.72-6.06,43.05-7.33l-9.5-15.88.72-.07c1.85-.17,182.56-17.2,203.37-17.61-1.07-2.38-5.61-11.12-15.64-14.45l.29-.87c12.03,4,16.42,15.49,16.46,15.6l.23.61h-.66c-16.52,0-190.53,16.35-203.25,17.54l9.51,15.9-.73.06c-14,1.12-43.37,7.31-43.66,7.37Z"/></g><g class="cls-29"><path class="cls-13" d="m260.92,321.01l-28.92-20.6,1.12-.17c24.87-3.75,104.62-11.46,105.42-11.54l.09.91c-.79.08-78.23,7.57-104.25,11.37l27.08,19.29-.53.74Z"/></g></g></g><path class="cls-5" d="m67.11,216.69v-11.25c0-85.63,69.42-155.05,155.05-155.05h29.51"/><line class="cls-5" x1="453.93" y1="296.47" x2="453.93" y2="386.76"/><path class="cls-5" d="m469.42,257.23c0-3.21-2.6-5.81-5.81-5.81s-5.81,2.6-5.81,5.81,2.6,5.81,5.81,5.81,5.81-2.6,5.81-5.81Z"/><path class="cls-9" d="m60.24,393.62c0,3.79,3.07,6.86,6.86,6.86s6.86-3.07,6.86-6.86-3.07-6.86-6.86-6.86-6.86,3.07-6.86,6.86Z"/><path class="cls-19" d="m507.45,125.62c-4.64-9.41-14.69-14.38-24.54-13l-.53-1.07-6.66,3.28c-11.74,5.78-16.57,19.98-10.79,31.72,6.44,13.08,26.17,21.39,35.39,25.48,2.78,1.23,5.96,1.16,8.69-.18l2.46-1.21-3.15-6.4c2.03-11.6,3.88-28.96-.88-38.62Z"/><path class="cls-21" d="m471.6,143.28c6.4,13,26.93,23.33,36.24,27.47,2.43,1.08,5.25-.33,5.81-2.94,2.2-10.17,6.3-33.62.46-45.46-5.78-11.74-19.98-16.57-31.72-10.79-11.74,5.78-16.57,19.98-10.79,31.72Z"/><circle class="cls-18" cx="493.21" cy="133.54" r="16.88" transform="translate(63.71 410.35) rotate(-47.95)"/><ellipse class="cls-9" cx="491.25" cy="134.51" rx="14.69" ry="16.88" transform="translate(-8.88 230.87) rotate(-26.22)"/><rect class="cls-19" x="419.87" y="516.54" width="3.63" height="31.18" transform="translate(107.97 -70) rotate(10.87)"/><rect class="cls-19" x="451.2" y="522.56" width="3.63" height="31.18" transform="translate(109.66 -75.8) rotate(10.87)"/><rect class="cls-19" x="435.31" y="519.5" width="3.63" height="31.18" transform="translate(108.8 -72.86) rotate(10.87)"/><path class="cls-37" d="m415.35,543.67h34.95c2.52,0,4.57,2.05,4.57,4.57v12.79c0,5.92-4.8,10.72-10.72,10.72h-22.64c-5.92,0-10.72-4.8-10.72-10.72v-12.79c0-2.52,2.05-4.57,4.57-4.57Z" transform="translate(113 -71.64) rotate(10.88)"/><g class="cls-51"><path class="cls-21" d="m412.44,537.15h34.95c2.52,0,4.57,2.05,4.57,4.57v12.79c0,5.92-4.8,10.72-10.72,10.72h-22.64c-5.92,0-10.72-4.8-10.72-10.72v-12.79c0-2.52,2.05-4.57,4.57-4.57Z" transform="translate(111.72 -71.21) rotate(10.88)"/></g><path class="cls-21" d="m419.7,524.82l37.43,7.19c19.6-26.27,56.11-31.09,63.91-71.7,7.12-37.04-18.71-64.67-55.75-71.78s-71.27,8.97-78.38,46.01c-7.97,41.49,24.27,61.79,32.79,90.28Z"/><path class="cls-19" d="m426.61,526.14l23.6,4.53c14.41-27.27,38.25-34.52,46.05-75.13,7.12-37.04-7.62-62.54-30.98-67.02s-46.49,13.73-53.61,50.77c-7.97,41.49,11.39,59.32,14.93,86.85Z"/><path class="cls-21" d="m433.05,527.38l10.72,2.06c9.58-28.19,21.61-37.72,29.41-78.33,7.12-37.04,2.72-60.55-7.89-62.59s-23.41,18.17-30.52,55.21c-7.97,41.49-.6,57.01-1.71,83.65Z"/></g><g id="TEXTS"><path class="cls-9" d="m835.49,49.08c0-6.87-5.57-12.44-12.44-12.44s-12.44,5.57-12.44,12.44,5.57,12.44,12.44,12.44c.07,0,.15,0,.22,0v-9.68h-2.67v-3.11h2.67v-2.29c0-2.66,1.62-4.11,3.99-4.11,1.14,0,2.11.08,2.4.12v2.78h-1.63c-1.29,0-1.54.61-1.54,1.51v1.98h3.09l-.4,3.11h-2.68v9.21c5.2-1.49,9-6.28,9-11.96Z"/><path class="cls-9" d="m876.53,49.08c0,1.31-1.07,2.38-2.38,2.38s-2.38-1.07-2.38-2.38,1.07-2.38,2.38-2.38,2.38,1.07,2.38,2.38Z"/><path class="cls-9" d="m879.72,44.86c-.11-.31-.3-.59-.53-.82-.23-.24-.51-.42-.82-.53-.25-.1-.63-.21-1.33-.25-.75-.03-.98-.04-2.89-.04s-2.13,0-2.89.04c-.7.03-1.07.15-1.33.25-.31.11-.59.3-.82.53-.24.23-.42.51-.53.82-.1.25-.21.63-.25,1.33-.03.75-.04.98-.04,2.89s0,2.13.04,2.89c.03.7.15,1.07.25,1.33.11.31.3.59.53.82.23.24.51.42.82.53.25.1.63.21,1.33.25.75.03.98.04,2.89.04s2.13,0,2.89-.04c.7-.03,1.07-.15,1.33-.25.62-.24,1.12-.73,1.36-1.36.1-.25.21-.63.25-1.33.03-.75.04-.98.04-2.89s0-2.13-.04-2.89c-.03-.7-.15-1.07-.25-1.33Zm-5.57,7.88c-2.03,0-3.67-1.64-3.67-3.67s1.64-3.67,3.67-3.67,3.67,1.64,3.67,3.67-1.64,3.67-3.67,3.67Zm3.81-6.62c-.47,0-.86-.38-.86-.86s.38-.86.86-.86.86.38.86.86c0,.47-.38.86-.86.86Z"/><path class="cls-9" d="m874.15,36.64c-6.87,0-12.44,5.57-12.44,12.44s5.57,12.44,12.44,12.44,12.44-5.57,12.44-12.44-5.57-12.44-12.44-12.44Zm7.1,15.38c-.03.76-.16,1.28-.33,1.73-.37.96-1.13,1.72-2.09,2.09-.45.18-.97.3-1.73.33-.76.03-1,.04-2.94.04s-2.18,0-2.94-.04c-.76-.03-1.28-.16-1.73-.33-.48-.18-.91-.46-1.27-.82-.36-.36-.64-.79-.82-1.27-.18-.45-.3-.97-.33-1.73-.04-.76-.04-1.01-.04-2.94s0-2.18.04-2.94c.03-.76.16-1.28.33-1.73.18-.48.46-.91.82-1.27.36-.36.79-.64,1.27-.82.45-.18.97-.3,1.73-.33.76-.03,1-.04,2.94-.04s2.18,0,2.94.04c.76.03,1.28.16,1.73.33.48.18.91.46,1.27.82.36.36.64.79.82,1.27.18.45.3.97.33,1.73.03.76.04,1.01.04,2.94s0,2.18-.04,2.94Z"/><path class="cls-9" d="m925.25,36.64c-6.87,0-12.44,5.57-12.44,12.44s5.57,12.44,12.44,12.44,12.44-5.57,12.44-12.44-5.57-12.44-12.44-12.44Zm5.68,9.7c0,.12,0,.25,0,.37,0,3.77-2.87,8.12-8.12,8.12h0,0c-1.61,0-3.11-.47-4.38-1.28.22.03.45.04.68.04,1.34,0,2.57-.46,3.55-1.22-1.25-.02-2.3-.85-2.67-1.98.17.03.35.05.54.05.26,0,.51-.04.75-.1-1.31-.26-2.29-1.42-2.29-2.8,0-.01,0-.02,0-.04.38.21.82.34,1.29.36-.77-.51-1.27-1.39-1.27-2.38,0-.52.14-1.01.39-1.43,1.41,1.73,3.51,2.86,5.88,2.98-.05-.21-.07-.43-.07-.65,0-1.58,1.28-2.85,2.86-2.85.82,0,1.56.35,2.08.9.65-.13,1.26-.37,1.81-.69-.21.67-.67,1.23-1.26,1.58.58-.07,1.13-.22,1.64-.45-.38.57-.87,1.08-1.42,1.48Z"/><text class="cls-12" transform="translate(956.8 56.22)"><tspan class="cls-50" x="0" y="0">b</tspan><tspan class="cls-54" x="13.1" y="0">ambo</tspan><tspan class="cls-58" x="70.78" y="0">o</tspan><tspan class="cls-61" x="83.06" y="0">z</tspan><tspan class="cls-2" x="93.42" y="0">.</tspan><tspan x="97.49" y="0">wua</tspan><tspan class="cls-35" x="140.05" y="0">z</tspan><tspan class="cls-54" x="150.16" y="0">e</tspan><tspan class="cls-33" x="162.16" y="0">.</tspan><tspan class="cls-58" x="166.67" y="0">c</tspan><tspan x="177.72" y="0">om</tspan></text><polygon class="cls-24" points="904.9 597.75 957.42 532.55 903.58 582.89 904.9 597.75"/><path class="cls-15" d="m884.54,567.74l53.08,26.75c4.19,2.11,9.25-.28,10.28-4.86l11.4-50.77c1.17-5.2-3.86-9.64-8.88-7.83l-65.09,23.48c-5.95,2.15-6.45,10.38-.8,13.22Z"/><path class="cls-17" d="m895.07,573.04l62.35-40.49-45.5,48.98-5.89,14.85c-1.01,2.54-4.68,2.29-5.33-.37l-5.63-22.98Z"/><text class="cls-8" transform="translate(992.47 562.76)"><tspan class="cls-39"><tspan x="0" y="0">BAMBO</tspan><tspan class="cls-45" x="114.42" y="0">O</tspan><tspan x="137.72" y="0">Z</tspan></tspan><tspan class="cls-30"><tspan x="-4.73" y="25.43">AIRLINES</tspan></tspan></text><text class="cls-10" transform="translate(600 254.61)"><tspan class="cls-43" x="0" y="0">T</tspan><tspan x="30.14" y="0">ận h</tspan><tspan class="cls-42" x="144.49" y="0">ư</tspan><tspan x="178.59" y="0">ở</tspan><tspan class="cls-1" x="211.54" y="0">n</tspan><tspan x="246.38" y="0">g điểm </tspan><tspan x="0" y="60.48">đến </tspan><tspan class="cls-3" x="115.15" y="60.48">m</tspan><tspan x="167.25" y="60.48">ơ </tspan><tspan class="cls-42" x="214.61" y="60.48">ư</tspan><tspan x="248.7" y="60.48">ớc của </tspan><tspan class="cls-55" x="435.45" y="60.48">b</tspan><tspan x="469.25" y="60.48">ạn </tspan></text><text class="cls-38" transform="translate(600 191.21)"><tspan class="cls-32" x="0" y="0">C</tspan><tspan class="cls-62" x="28.16" y="0">ù</tspan><tspan class="cls-60" x="55" y="0">n</tspan><tspan x="82.31" y="0">g </tspan><tspan class="cls-32" x="120.94" y="0">b</tspan><tspan class="cls-62" x="147.43" y="0">ắt đầu hành t</tspan><tspan class="cls-34" x="423.94" y="0">r</tspan><tspan x="441.05" y="0">ình!</tspan></text><rect class="cls-20" x="621.62" y="388.38" width="321.55" height="64.22" rx="19.09" ry="19.09"/><text class="cls-11" transform="translate(708.58 428.58)"><tspan x="0" y="0">B</tspan><tspan class="cls-49" x="22.14" y="0">Ắ</tspan><tspan x="43.77" y="0">T </tspan><tspan class="cls-31" x="70.43" y="0">Đ</tspan><tspan class="cls-41" x="94.42" y="0">Ầ</tspan><tspan x="116.62" y="0">U </tspan></text></g></svg>