<?xml version="1.0" encoding="UTF-8"?><svg xmlns="http://www.w3.org/2000/svg" xmlns:xlink="http://www.w3.org/1999/xlink" viewBox="0 0 453.8 475.17"><defs><style>.cls-1,.cls-2{fill:#fff;}.cls-3,.cls-4,.cls-5,.cls-6,.cls-7,.cls-8,.cls-9,.cls-10,.cls-2,.cls-11,.cls-12,.cls-13{stroke-width:0px;}.cls-3,.cls-6{fill:#80a1af;}.cls-4{fill:#a55eea;}.cls-14{letter-spacing:.02em;}.cls-15{letter-spacing:-.01em;}.cls-16{fill:#75c392;}.cls-5{fill:#923ad8;}.cls-6,.cls-7{mix-blend-mode:multiply;}.cls-17{fill:none;stroke:#fff;stroke-miterlimit:10;stroke-width:.75px;}.cls-18{isolation:isolate;}.cls-7,.cls-19,.cls-11{fill:#cee5f2;}.cls-8{fill:#d3ebf4;}.cls-9{fill:#e09841;}.cls-10{fill:#eebd4e;}.cls-20{clip-path:url(#clippath-1);}.cls-21{letter-spacing:0em;}.cls-22{clip-path:url(#clippath);}.cls-23{font-family:Montserrat-Black, Montserrat;font-size:63.68px;font-weight:800;}.cls-12{fill:#7737b5;}.cls-13{fill:#538cb7;}.cls-24{letter-spacing:-.04em;}</style><clipPath id="clippath"><path class="cls-11" d="m246.97,251.02s31.15-31.93,53.4-40.75c22.25-8.82,133.87-45.48,133.87-45.48l-20.77-9.55s-210.13,28.9-233.32,21.53l66.82,74.25Z"/></clipPath><clipPath id="clippath-1"><path class="cls-2" d="m63.35,85.25c6.38-5.42,45.73,12.44,56.65,24.67,9.26,10.36,178.11,198.85,190.88,213.04,20.82,23.13,43.62,75.49,51.53,90.34.44.83-.52,1.69-1.3,1.17-13.94-9.43-64.52-38.62-84.42-60.74-12.77-14.19-182.83-201.74-193.03-211.18-10.2-9.44-26.37-51.51-20.31-57.29Z"/></clipPath></defs><g class="cls-18"><g id="Layer_2"><g id="TEXTS"><path class="cls-13" d="m79.1,219.38c1.2,42.65,36.74,76.25,79.39,75.05,7.65-.22,15.01-1.55,21.93-3.82-.86,4.12-1.27,8.39-1.15,12.78.85,30.18,26.01,53.97,56.19,53.12,20.26-.57,37.62-12.1,46.6-28.74,9.62,9.04,22.68,14.43,36.93,14.03,28.6-.8,51.14-24.64,50.33-53.24-.8-28.6-24.64-51.14-53.24-50.33-14.6.41-27.6,6.83-36.74,16.81,1.29-3.81,1.94-7.91,1.82-12.17-.54-19.31-16.64-34.53-35.96-33.99-4.18.12-8.17.97-11.85,2.42-3.11-40.85-37.8-72.46-79.19-71.3-42.65,1.2-76.25,36.74-75.05,79.39Z"/><path class="cls-13" d="m262.68,185.93c7.93-.22,14.19-6.84,13.96-14.77-.22-7.93-6.84-14.19-14.77-13.96-7.93.22-14.19,6.84-13.96,14.77.22,7.93,6.84,14.19,14.77,13.96Z"/><path class="cls-13" d="m281.28,350.46c-3.97.11-7.09,3.42-6.98,7.39.11,3.97,3.42,7.09,7.39,6.98,3.97-.11,7.09-3.42,6.98-7.39-.11-3.97-3.42-7.09-7.39-6.98Z"/><path class="cls-17" d="m2.13,186.69c-8.99,41.71,17.53,82.8,59.23,91.8,7.48,1.61,14.95,2.07,22.21,1.51-1.82,3.79-3.24,7.85-4.16,12.14-6.36,29.52,12.41,58.61,41.92,64.97,19.81,4.27,39.42-2.79,52.1-16.81,7.19,11.07,18.59,19.42,32.52,22.42,27.97,6.03,55.53-11.76,61.56-39.73,6.03-27.97-11.76-55.53-39.73-61.56-14.27-3.08-28.43.06-39.69,7.57,2.16-3.4,3.76-7.22,4.66-11.39,4.07-18.89-7.94-37.5-26.83-41.57-4.09-.88-8.17-1.01-12.09-.47,6.71-40.41-19.46-79.38-59.93-88.11-41.71-8.99-82.8,17.53-91.8,59.23Z"/><path class="cls-17" d="m167.26,362.15c-3.88-.84-7.7,1.63-8.54,5.51-.84,3.88,1.63,7.7,5.51,8.54,3.88.84,7.7-1.63,8.54-5.51.84-3.88-1.63-7.7-5.51-8.54Z"/><polygon class="cls-3" points="345.1 384.88 318.13 337.81 411.23 341.79 428.96 354.34 345.1 384.88"/><polygon class="cls-11" points="333.86 394.99 289.88 363.22 284.06 456.23 294.67 475.17 333.86 394.99"/><path class="cls-19" d="m246.97,251.02s31.15-31.93,53.4-40.75c22.25-8.82,133.87-45.48,133.87-45.48l-20.77-9.55s-210.13,28.9-233.32,21.53l66.82,74.25Z"/><g class="cls-22"><path class="cls-3" d="m251.01,275.92c-4.04-24.9-118.36-90.93-98.22-98.18,43.76-15.74,85.68,48.96,143.7,19.93,88.94-44.5,178.98,64.67,184.17,18.68l-66.08,73.74-163.57-14.18Z"/></g><path class="cls-11" d="m212.19,282.31s-35.03,27.63-46.14,48.82c-11.11,21.2-59.3,128.35-59.3,128.35l-7.32-21.66s50.83-205.93,45.94-229.77l66.82,74.25Z"/><path class="cls-1" d="m63.35,85.25c6.38-5.42,45.73,12.44,56.65,24.67,9.26,10.36,178.11,198.85,190.88,213.04,20.82,23.13,43.62,75.49,51.53,90.34.44.83-.52,1.69-1.3,1.17-13.94-9.43-64.52-38.62-84.42-60.74-12.77-14.19-182.83-201.74-193.03-211.18-10.2-9.44-26.37-51.51-20.31-57.29Z"/><g class="cls-20"><path class="cls-5" d="m215.51,319.71c37.6,21.47,75.27,33.24,83.57,25.77,7.05-6.34,7.65-32.5-19.18-81.1-18.46-33.43,157.61,12.44,157.61,12.44l65.23,111.26-56.53,97.93-112.21,48.68-106.95-120.78-11.55-94.19Z"/><path class="cls-7" d="m63.14,85.28c4.63-3.84,40.36,17.28,51.29,29.49,3.21,3.59,36.82,30.52,65.27,62.24,25.09,27.98,41.38,45.9,66.82,74.25,28.89,32.2,54.48,71.5,58.92,76.43,20.82,23.13,47.4,72.08,56.16,86.17.49.79-.2,1.41-.93.84-13.09-10.19-59.88-42.79-79.79-64.91-12.77-14.19-182.63-201.92-192.57-211.6-9.93-9.68-29.48-48.71-25.18-52.91Z"/><path class="cls-6" d="m16.4,98.13c54.98-13.44,82.34-1.91,103.49,21.6,21.15,23.51,167.06,180.83,189.74,225.73,18.37,36.39-2.35,88.24,68.1,87.42,70.45-.83,191.81-182.86,191.81-182.86l-42.95-148.04L333.5-4.3l-157.38-25.57L7.44,21.39l8.95,76.74Z"/></g><polygon class="cls-11" points="262.83 181.09 283.52 162.47 258.82 135.02 252.12 133.42 237.24 146.8 238.35 153.88 262.83 181.09"/><path class="cls-3" d="m293.49,190.91c-5.84-10.54-9.69-20.24-9.97-28.44l-20.69,18.61c8.94.68,18.17,5.4,27.58,12.48,1.8,1.35,4.17-.69,3.08-2.66Z"/><polygon class="cls-11" points="123.85 306.15 144.54 287.53 119.84 260.09 113.14 258.48 98.26 271.86 99.37 278.95 123.85 306.15"/><path class="cls-3" d="m154.51,315.97c-5.84-10.54-9.69-20.24-9.97-28.44l-20.69,18.61c8.94.68,18.17,5.4,27.58,12.48,1.8,1.35,4.17-.69,3.08-2.66Z"/><path class="cls-9" d="m437.16,245.56c7.99-10.61,7.87-24.81.68-35.15l.91-1.21-7.5-5.65c-13.23-9.97-32.04-7.32-42.01,5.92-11.11,14.75-9.23,41.79-8.59,54.54.19,3.85,2.09,7.4,5.17,9.72l2.77,2.09,5.44-7.22c14.27-4.32,34.94-12.15,43.14-23.04Z"/><path class="cls-10" d="m396.73,215.12c-11.04,14.66-10.99,43.75-10.36,56.63.17,3.37,3.37,5.74,6.64,4.89,12.75-3.32,41.59-12.08,51.65-25.43,9.97-13.23,7.32-32.04-5.92-42.01-13.23-9.97-32.04-7.32-42.01,5.92Z"/><path class="cls-8" d="m403.01,221.13c7.1-9.43,20.5-11.31,29.92-4.21,9.43,7.1,11.31,20.5,4.21,29.92-7.1,9.43-20.5,11.31-29.92,4.21-9.43-7.1-11.31-20.5-4.21-29.92Z"/><path class="cls-2" d="m403.01,221.13c7.1-9.43,19.51-12.06,27.71-5.88,8.21,6.18,9.1,18.83,2,28.26-7.1,9.43-19.51,12.06-27.71,5.88-8.21-6.18-9.1-18.83-2-28.26Z"/><polygon class="cls-12" points="246.8 424.12 178.45 390.52 238.7 409.28 246.8 424.12"/><polygon class="cls-4" points="254.52 381.62 214.68 434.99 178.45 390.52 254.52 381.62"/><polygon class="cls-5" points="241.21 399.45 178.45 390.52 232.42 411.23 246.8 424.12 241.21 399.45"/><text class="cls-23" transform="translate(149.95 54.13) scale(1.05 1)"><tspan class="cls-1"><tspan x="0" y="0">LE</tspan><tspan class="cls-14" x="82.15" y="0">T</tspan><tspan class="cls-21" x="125.07" y="0">’</tspan><tspan x="145.06" y="0">S</tspan></tspan><tspan class="cls-16"><tspan x="0" y="59.13">TR</tspan><tspan class="cls-24" x="89.09" y="59.13">A</tspan><tspan class="cls-15" x="137.87" y="59.13">V</tspan><tspan x="186.96" y="59.13">EL!</tspan></tspan></text></g></g></g></svg>