<?xml version="1.0" encoding="UTF-8"?><svg id="Layer_2" xmlns="http://www.w3.org/2000/svg" viewBox="0 0 288.28 68.49"><g id="TEXTS"><polygon points="24.66 68.07 77.92 1.96 23.33 53 24.66 68.07" fill="#7737b5" stroke-width="0"/><path d="m4.02,37.64l53.82,27.13c4.25,2.14,9.38-.28,10.43-4.93l11.56-51.48c1.18-5.27-3.92-9.77-9-7.94L4.83,24.23c-6.04,2.18-6.54,10.52-.81,13.41Z" fill="#a55eea" stroke-width="0"/><path d="m14.69,43.02L77.92,1.96,31.78,51.63l-5.98,15.06c-1.02,2.57-4.75,2.32-5.41-.37l-5.7-23.3Z" fill="#923ad8" stroke-width="0"/><text transform="translate(113.47 32.59)" fill="#fff"><tspan font-family="Montserrat-ExtraBoldItalic, Montserrat" font-size="28.13" font-style="italic" font-weight="700"><tspan x="0" y="0">BAMBO</tspan><tspan x="116.03" y="0" letter-spacing="0em">O</tspan><tspan x="139.66" y="0">Z</tspan></tspan><tspan font-family="Montserrat-Medium, Montserrat" font-size="18.76" font-weight="500"><tspan x="-4.8" y="25.79" letter-spacing=".6em">AI</tspan><tspan x="37.25" y="25.79" letter-spacing=".49em">R</tspan><tspan x="62.14" y="25.79" letter-spacing=".47em">L</tspan><tspan x="84.54" y="25.79" letter-spacing=".6em">I</tspan><tspan x="101.61" y="25.79" letter-spacing=".46em">N</tspan><tspan x="128.09" y="25.79" letter-spacing=".6em">E</tspan><tspan x="151.91" y="25.79" letter-spacing=".49em">S</tspan></tspan></text></g></svg>