<?xml version="1.0" encoding="UTF-8"?><svg id="Layer_2" xmlns="http://www.w3.org/2000/svg" xmlns:xlink="http://www.w3.org/1999/xlink" viewBox="0 0 985.96 706.39"><defs><clipPath id="clippath"><rect y="324.75" width="623.76" height="381.64" fill="none" stroke-width="0"/></clipPath><clipPath id="clippath-1"><path d="m840.35,219.3h16.58c1.2,0,2.17.97,2.17,2.17v6.07c0,2.81-2.28,5.09-5.09,5.09h-10.74c-2.81,0-5.09-2.28-5.09-5.09v-6.07c0-1.2.97-2.17,2.17-2.17Z" transform="translate(142.3 -295.89) rotate(21.55)" fill="#e09841" stroke-width="0"/></clipPath><clipPath id="clippath-2"><rect width="985.96" height="519.53" fill="none" stroke-width="0"/></clipPath><clipPath id="clippath-3"><path d="m160.68,283.97S27.37,182.34-33.18,121.54c-5.07-5.09-11.89-8.04-19.07-8.32l-49.07-1.88c-3.71-.14-6.26,3.68-4.7,7.05L2.63,353.91l158.05-69.94Z" fill="#923ad8" stroke-width="0"/></clipPath><clipPath id="clippath-4"><path d="m896.63,304.58l-5.97-10.26-528.3-69.73-4.02,19.18c18.77,45.98,30.36,109.35,30.36,109.35,43.56-9.88,99.83-19.28,163.45-27.14l-36.63,34.8,115.13-43.31c84.04-7.91,175.97-12.87,265.98-12.88Z" fill="#cee5f2" stroke-width="0"/></clipPath><clipPath id="clippath-6"><path d="m-40.35,333.38L660.28,78.29c25.35-9.23,52.52-12.32,79.29-9.02h0c19.47,2.4,37.96,9.88,53.63,21.68l5.27,3.97c11.8,8.89,14.81,25.34,6.93,37.84l-13.53,21.44c-19.6,31.07-48.76,54.92-83.1,67.98l-40.7,12.78c-38.15,11.98-74.36,29.39-107.7,51.46-20.85,13.8-45.29,28.35-67.38,35.95-30.85,10.62-153.13,45.56-221.19,66.36-30.86,9.43-63.36,12.17-95.36,8.04-75.08-9.7-213.92-27.56-245.01-30.9l28.22-32.47Z" fill="#fff" stroke-width="0"/></clipPath><clipPath id="clippath-7"><path d="m-96.21,157.99S-2.92,277.14,125.17,266.2c128.09-10.94,301.2,54.29,99.35,61.36-324.65,11.37,104.47,251.27,104.47,251.27l-626.73-123.83-101.45-95.65-10.11-91.68L-96.21,157.99Z" fill="#923ad8" stroke-width="0"/></clipPath><clipPath id="clippath-8"><path d="m-40.35,333.38L660.28,78.29c25.35-9.23,52.52-12.32,79.29-9.02h0c19.47,2.4,37.96,9.88,53.63,21.68l5.27,3.97c11.8,8.89,14.81,25.34,6.93,37.84l-13.53,21.44c-19.6,31.07-48.76,54.92-83.1,67.98l-40.7,12.78c-38.15,11.98-74.36,29.39-107.7,51.46-20.85,13.8-45.29,28.35-67.38,35.95-30.85,10.62-153.13,45.56-221.19,66.36-30.86,9.43-63.36,12.17-95.36,8.04-75.08-9.7-213.92-27.56-245.01-30.9l28.22-32.47Z" fill="none" stroke-width="0"/></clipPath><clipPath id="clippath-9"><path d="m426.92,200.45l-708.3-36.21-10.56,12.51c58.3,13.58,117.19,26.86,174.42,39.74l-53.59,45.12,95.1-35.78c11.06,2.49,22.03,4.96,32.9,7.42l-48.53,38.46,82.05-30.87c13.81,3.14,27.41,6.24,40.78,9.31l-36.69,34.86,71.33-26.84c97.65,22.78,179.8,43.6,230.4,61.68,0,0,106.22-30.64,146.92-84.6,2.96-3.92,4.5-8.74,4.37-13.65-.29-11.34-9.26-20.55-20.6-21.13Z" fill="#cee5f2" stroke-width="0"/></clipPath></defs><g id="TEXTS"><g id="OBJECTS"><g clip-path="url(#clippath)"><path d="m458.15,788.06c-64.69,8.2-319.8-78.58-374.58-71.63-96.46,12.23-184.57-56.04-196.8-152.5-12.23-96.46,56.04-184.57,152.5-196.8,93.61-11.87,179.36,52.09,195.52,144.04,8.02-4.11,16.88-6.93,26.34-8.13,43.68-5.54,83.59,25.38,89.13,69.07,1.22,9.63.67,19.07-1.4,28.01,18.5-24.67,46.57-42.13,79.58-46.32,64.69-8.2,123.78,37.59,131.99,102.28s-37.59,123.78-102.28,131.99Z" fill="#fff" stroke-width="0"/><circle cx="281.64" cy="449.77" r="32.75" transform="translate(-101.51 82.61) rotate(-14.17)" fill="#fff" stroke-width="0"/><path d="m42.56,349.58c93.61-11.87,179.36,52.09,195.52,144.04,8.02-4.11,16.88-6.93,26.34-8.13,43.68-5.54,83.59,25.38,89.13,69.07,1.22,9.61.67,19.04-1.39,27.95,18.51-24.65,46.58-42.08,79.57-46.26,64.69-8.2,123.78,37.59,131.99,102.28,8.2,64.69-37.59,123.78-102.28,131.99-64.69,8.2-123.78-37.59-131.99-102.28-2.24-17.64-.45-34.87,4.63-50.76-12.37,13.96-29.65,23.67-49.6,26.2-27.37,3.47-53.26-7.38-70.14-26.71-27.02,43.53-72.7,74.95-127.48,81.9-96.46,12.23-184.57-56.04-196.8-152.5-12.23-96.46,56.04-184.57,152.5-196.8Z" fill="none" stroke="#fff" stroke-miterlimit="10" stroke-width="1.18"/><circle cx="284.93" cy="432.23" r="32.75" transform="translate(-232.15 457.36) rotate(-59.39)" fill="none" stroke="#fff" stroke-miterlimit="10" stroke-width="1.18"/></g><path d="m397.02,40.42c-6-15.05-20.87-23.91-36.21-22.98l-.68-1.71-10.65,4.24c-18.77,7.48-27.93,28.76-20.45,47.53,8.33,20.93,37.7,36.1,51.4,43.51,4.13,2.23,9.04,2.51,13.4.77l3.93-1.57-4.08-10.24c4.54-17.61,9.48-44.12,3.33-59.56Z" fill="#e09841" stroke-width="0"/><path d="m339.68,63.26c8.28,20.79,38.63,39.18,52.46,46.68,3.62,1.96,8.12.12,9.3-3.82,4.62-15.4,13.77-50.99,6.22-69.94-7.48-18.77-28.76-27.93-47.53-20.45-18.77,7.48-27.93,28.76-20.45,47.53Z" fill="#eebd4e" stroke-width="0"/><circle cx="374.14" cy="50.89" r="26.06" transform="translate(-3.36 42.87) rotate(-6.53)" fill="#d3ebf4" stroke-width="0"/><ellipse cx="371" cy="52.14" rx="22.69" ry="26.06" transform="translate(7.04 140.98) rotate(-21.72)" fill="#fff" stroke-width="0"/><polygon points="533.61 494.24 464.04 402.96 532.67 468.78 533.61 494.24" fill="#7737b5" stroke-width="0"/><polygon points="572.61 442.12 482.99 487.3 464.04 402.96 572.61 442.12" fill="#a55eea" stroke-width="0"/><polygon points="542.67 457.21 464.04 402.96 522.88 467.19 533.61 494.24 542.67 457.21" fill="#923ad8" stroke-width="0"/><rect x="844.84" y="205.66" width="1.72" height="14.79" transform="translate(137.34 -295.7) rotate(21.55)" fill="#e09841" stroke-width="0"/><rect x="858.92" y="211.22" width="1.72" height="14.79" transform="translate(140.39 -300.51) rotate(21.55)" fill="#e09841" stroke-width="0"/><rect x="851.78" y="208.4" width="1.72" height="14.79" transform="translate(138.85 -298.08) rotate(21.55)" fill="#e09841" stroke-width="0"/><path d="m840.35,219.3h16.58c1.2,0,2.17.97,2.17,2.17v6.07c0,2.81-2.28,5.09-5.09,5.09h-10.74c-2.81,0-5.09-2.28-5.09-5.09v-6.07c0-1.2.97-2.17,2.17-2.17Z" transform="translate(142.3 -295.89) rotate(21.55)" fill="#e09841"/><g clip-path="url(#clippath-1)"><path d="m839.57,216.01h16.58c1.2,0,2.17.97,2.17,2.17v6.07c0,2.81-2.28,5.09-5.09,5.09h-10.74c-2.81,0-5.09-2.28-5.09-5.09v-6.07c0-1.2.97-2.17,2.17-2.17Z" transform="translate(141.03 -295.83) rotate(21.55)" fill="#eebd4e" stroke-width="0"/></g><path d="m845.41,209.47l16.82,6.64c11.45-10.53,28.9-9.57,36.11-27.82,6.57-16.65-3.04-31.8-19.69-38.37-16.65-6.57-34.02-2.08-40.6,14.57-7.36,18.65,5.89,30.95,7.36,44.98Z" fill="#eebd4e" stroke-width="0"/><path d="m848.52,210.7l10.61,4.19c9.12-11.45,20.87-12.74,28.08-30.99,6.57-16.65,1.94-29.83-8.55-33.98-10.5-4.15-22.89,2.32-29.46,18.97-7.36,18.65.1,28.66-.67,41.81Z" fill="#e09841" stroke-width="0"/><path d="m851.42,211.84l4.82,1.9c6.95-12.31,13.39-15.69,20.6-33.94,6.57-16.65,6.59-28,1.82-29.88s-12.51,6.41-19.09,23.06c-7.36,18.65-5.29,26.53-8.15,38.86Z" fill="#eebd4e" stroke-width="0"/><g clip-path="url(#clippath-2)"><path d="m160.68,283.97S27.37,182.34-33.18,121.54c-5.07-5.09-11.89-8.04-19.07-8.32l-49.07-1.88c-3.71-.14-6.26,3.68-4.7,7.05L2.63,353.91l158.05-69.94Z" fill="#923ad8"/><g clip-path="url(#clippath-3)"><path d="m146.34,283.74c-72,7.88-222.83-6.06-233.94-179.9-11.11-173.84-223.8-77.19-223.8-77.19l-42.36,207.01s57.19,113.18,73.46,127.44c16.27,14.26,128.59,53.26,128.59,53.26l226.77-69.3,71.27-61.32Z" fill="#6b2ca8" stroke-width="0"/></g><polygon points="830.04 305.74 896.63 304.58 932.17 245.42 911.1 245.96 830.04 305.74" fill="#cee5f2" stroke-width="0"/><path d="m896.63,304.58l-5.97-10.26-528.3-69.73-4.02,19.18c18.77,45.98,30.36,109.35,30.36,109.35,43.56-9.88,99.83-19.28,163.45-27.14l-36.63,34.8,115.13-43.31c84.04-7.91,175.97-12.87,265.98-12.88Z" fill="#cee5f2"/><g clip-path="url(#clippath-4)"><path d="m917.4,316.68l-5.97-10.26-528.3-69.73-4.02,19.18c18.77,45.98,30.36,109.35,30.36,109.35,43.56-9.88,107.87-20.62,171.49-28.47l-44.67,36.13,115.13-43.31c84.04-7.91,175.96-12.87,265.98-12.88Z" fill="#80a1af" stroke-width="0"/></g><path d="m-40.35,333.38L660.28,78.29c25.35-9.23,52.52-12.32,79.29-9.02h0c19.47,2.4,37.96,9.88,53.63,21.68l5.27,3.97c11.8,8.89,14.81,25.34,6.93,37.84l-13.53,21.44c-19.6,31.07-48.76,54.92-83.1,67.98l-40.7,12.78c-38.15,11.98-74.36,29.39-107.7,51.46-20.85,13.8-45.29,28.35-67.38,35.95-30.85,10.62-153.13,45.56-221.19,66.36-30.86,9.43-63.36,12.17-95.36,8.04-75.08-9.7-213.92-27.56-245.01-30.9l28.22-32.47Z" fill="#fff"/><path d="m-40.35,333.38L660.28,78.29c25.35-9.23,52.52-12.32,79.29-9.02h0c19.47,2.4,37.96,9.88,53.63,21.68l5.27,3.97c11.8,8.89,14.81,25.34,6.93,37.84l-13.53,21.44c-19.6,31.07-48.76,54.92-83.1,67.98l-40.7,12.78c-38.15,11.98-74.36,29.39-107.7,51.46-20.85,13.8-45.29,28.35-67.38,35.95-30.85,10.62-153.13,45.56-221.19,66.36-30.86,9.43-63.36,12.17-95.36,8.04-75.08-9.7-213.92-27.56-245.01-30.9l28.22-32.47Z" fill="#fff"/><g clip-path="url(#clippath-6)"><path d="m-87,412.63l469.76-184.59c35.21-13.84,72.17-22.74,109.82-26.47l30.93-3.06c28.73-2.84,57.08-8.7,84.59-17.49l128.51-41.06c31.65-10.11,52.61-40.16,51.18-73.35l-.14-3.25,78.91,158.83-303.83,293.98-528.59,33.86-121.15-137.41Z" fill="#cee5f2" stroke-width="0"/><path d="m-96.21,157.99S-2.92,277.14,125.17,266.2c128.09-10.94,301.2,54.29,99.35,61.36-324.65,11.37,104.47,251.27,104.47,251.27l-626.73-123.83-101.45-95.65-10.11-91.68L-96.21,157.99Z" fill="#923ad8"/><g clip-path="url(#clippath-7)"><path d="m295.31,283.85c-39,10.15-260.8-61.58-320.36,131.72-59.55,193.29,301.61,128.52,301.61,128.52l70.27-144.41-51.52-115.82Z" fill="#6b2ca8" stroke-width="0"/></g></g><path d="m605.08,333.87c4.32,18.37,34.36,54.47,117.49,5.59l-29.58-86.02s-101.3,23.47-87.91,80.43Z" fill="#cee5f2" stroke-width="0"/><ellipse cx="702.95" cy="298.6" rx="40.57" ry="46.51" transform="translate(-7.36 17.95) rotate(-1.46)" fill="#80a1af" stroke-width="0"/><ellipse cx="702.95" cy="298.6" rx="34.38" ry="39.41" transform="translate(-7.36 17.95) rotate(-1.46)" fill="#21344f" stroke-width="0"/><polygon points="38.85 345.98 114.38 313.55 -158.74 315.65 -202.29 324.66 38.85 345.98" fill="#cee5f2" stroke-width="0"/><path d="m771.67,103.21l-24.5,3.3c-1.61.22-3.16-.68-3.78-2.18l-4.16-10.18c-.88-2.15.5-4.55,2.79-4.88l23.06-3.31c1.47-.21,2.92.51,3.63,1.81l5.6,10.18c1.21,2.19-.17,4.92-2.65,5.25Z" fill="#21344f" stroke-width="0"/><path d="m728.15,110.22l9.71-1.72c1.61-.29,2.61-1.92,2.11-3.49l-3.82-12.1c-.43-1.37-1.85-2.16-3.24-1.81h0c-.82.21-1.51.79-1.84,1.57l-5.89,13.82c-.84,1.98.85,4.11,2.97,3.73Z" fill="#21344f" stroke-width="0"/><g clip-path="url(#clippath-8)"><path d="m803.86,102.98l-22.69-.93c-.85-.03-1.62-.52-2.02-1.27l-6.46-12.07c-.85-1.59.29-3.51,2.09-3.54l20.57-.28c.83-.01,1.6.4,2.05,1.1l8.57,13.28c1.06,1.64-.17,3.79-2.12,3.71Z" fill="#21344f" stroke-width="0"/></g><path d="m426.92,200.45l-708.3-36.21-10.56,12.51c58.3,13.58,117.19,26.86,174.42,39.74l-53.59,45.12,95.1-35.78c11.06,2.49,22.03,4.96,32.9,7.42l-48.53,38.46,82.05-30.87c13.81,3.14,27.41,6.24,40.78,9.31l-36.69,34.86,71.33-26.84c97.65,22.78,179.8,43.6,230.4,61.68,0,0,106.22-30.64,146.92-84.6,2.96-3.92,4.5-8.74,4.37-13.65-.29-11.34-9.26-20.55-20.6-21.13Z" fill="#cee5f2"/><g clip-path="url(#clippath-9)"><path d="m427.23,212.68l-739.84-35.41,20.97,11.7c58.3,13.58,117.19,26.86,174.42,39.74l-53.59,45.12,95.1-35.78c11.06,2.49,22.03,4.96,32.9,7.42l-48.53,38.46,82.05-30.87c13.81,3.14,27.41,6.24,40.78,9.31l-36.69,34.86,71.33-26.84c97.65,22.78,179.8,43.6,230.4,61.68,0,0,106.22-30.64,146.92-84.6,2.96-3.92,4.5-8.74,4.37-13.65-.29-11.34-9.26-20.55-20.6-21.13Z" fill="#80a1af" stroke-width="0"/></g><path d="m134.38,272.09c4.97,21.17,39.61,62.79,135.43,6.44l-34.1-99.15s-116.77,27.06-101.34,92.71Z" fill="#cee5f2" stroke-width="0"/><ellipse cx="247.19" cy="231.44" rx="46.77" ry="53.61" transform="translate(-5.8 6.35) rotate(-1.46)" fill="#80a1af" stroke-width="0"/><ellipse cx="247.19" cy="231.44" rx="39.63" ry="45.43" transform="translate(-5.8 6.35) rotate(-1.46)" fill="#21344f" stroke-width="0"/><path d="m466.31,211.42l-2.62.97c-1.33.49-2.8-.25-3.19-1.62l-1.74-6.18c-.34-1.21.3-2.48,1.47-2.93l2.38-.91c1.3-.5,2.75.2,3.18,1.52l1.99,6.12c.4,1.24-.24,2.58-1.47,3.03Z" fill="#21344f" stroke-width="0"/><path d="m476.98,207.34l-2.62.97c-1.33.49-2.8-.25-3.19-1.62l-1.74-6.18c-.34-1.21.3-2.48,1.47-2.93l2.38-.91c1.3-.5,2.75.2,3.18,1.52l1.99,6.12c.4,1.24-.24,2.58-1.47,3.03Z" fill="#21344f" stroke-width="0"/><path d="m487.45,203.07l-2.62.97c-1.33.49-2.8-.25-3.19-1.62l-1.74-6.18c-.34-1.21.3-2.48,1.47-2.93l2.38-.91c1.3-.5,2.75.2,3.18,1.52l1.99,6.12c.4,1.24-.24,2.58-1.47,3.03Z" fill="#21344f" stroke-width="0"/><path d="m497.73,199.47l-2.62.97c-1.33.49-2.8-.25-3.19-1.62l-1.74-6.18c-.34-1.21.3-2.48,1.47-2.93l2.38-.91c1.3-.5,2.75.2,3.18,1.52l1.99,6.12c.4,1.24-.24,2.58-1.47,3.03Z" fill="#21344f" stroke-width="0"/><path d="m508.41,195.4l-2.62.97c-1.33.49-2.8-.25-3.19-1.62l-1.74-6.18c-.34-1.21.3-2.48,1.47-2.93l2.38-.91c1.3-.5,2.75.2,3.18,1.52l1.99,6.12c.4,1.24-.24,2.58-1.47,3.03Z" fill="#21344f" stroke-width="0"/><path d="m518.87,191.13l-2.62.97c-1.33.49-2.8-.25-3.19-1.62l-1.75-6.18c-.34-1.21.3-2.48,1.47-2.93l2.38-.91c1.3-.5,2.75.2,3.18,1.52l1.99,6.12c.4,1.24-.24,2.58-1.47,3.03Z" fill="#21344f" stroke-width="0"/><path d="m528.9,187.41l-2.62.97c-1.33.49-2.8-.25-3.19-1.62l-1.74-6.18c-.34-1.21.3-2.48,1.47-2.93l2.38-.91c1.3-.5,2.75.2,3.18,1.52l1.99,6.12c.4,1.24-.24,2.58-1.47,3.03Z" fill="#21344f" stroke-width="0"/><path d="m539.58,183.34l-2.62.97c-1.33.49-2.8-.25-3.19-1.62l-1.74-6.18c-.34-1.21.3-2.48,1.47-2.93l2.38-.91c1.3-.5,2.75.2,3.18,1.52l1.99,6.12c.4,1.24-.24,2.58-1.47,3.03Z" fill="#21344f" stroke-width="0"/><path d="m550.04,179.07l-2.62.97c-1.33.49-2.8-.25-3.19-1.62l-1.74-6.18c-.34-1.21.3-2.48,1.47-2.93l2.38-.91c1.3-.5,2.75.2,3.18,1.52l1.99,6.12c.4,1.24-.24,2.58-1.47,3.03Z" fill="#21344f" stroke-width="0"/><path d="m569.77,170.63l-2.62.97c-1.33.49-2.8-.25-3.19-1.62l-1.74-6.18c-.34-1.21.3-2.48,1.47-2.93l2.38-.91c1.3-.5,2.75.2,3.18,1.52l1.99,6.12c.4,1.24-.24,2.58-1.47,3.03Z" fill="#21344f" stroke-width="0"/><path d="m580.44,166.56l-2.62.97c-1.33.49-2.8-.25-3.19-1.62l-1.74-6.18c-.34-1.21.3-2.48,1.47-2.93l2.38-.91c1.3-.5,2.75.2,3.18,1.52l1.99,6.12c.4,1.24-.24,2.58-1.47,3.03Z" fill="#21344f" stroke-width="0"/><path d="m590.9,162.28l-2.62.97c-1.33.49-2.8-.25-3.19-1.62l-1.75-6.18c-.34-1.21.3-2.48,1.47-2.93l2.38-.91c1.3-.5,2.75.2,3.18,1.52l1.99,6.12c.4,1.24-.24,2.58-1.47,3.03Z" fill="#21344f" stroke-width="0"/><path d="m601.19,158.68l-2.62.97c-1.33.49-2.8-.25-3.19-1.62l-1.74-6.18c-.34-1.21.3-2.48,1.47-2.93l2.38-.91c1.3-.5,2.75.2,3.18,1.52l1.99,6.12c.4,1.24-.24,2.58-1.47,3.03Z" fill="#21344f" stroke-width="0"/><path d="m611.86,154.61l-2.62.97c-1.33.49-2.8-.25-3.19-1.62l-1.75-6.18c-.34-1.21.3-2.48,1.47-2.93l2.38-.91c1.3-.5,2.75.2,3.18,1.52l1.99,6.12c.4,1.24-.24,2.58-1.47,3.03Z" fill="#21344f" stroke-width="0"/><path d="m622.33,150.34l-2.62.97c-1.33.49-2.8-.25-3.19-1.62l-1.74-6.18c-.34-1.21.3-2.48,1.47-2.93l2.38-.91c1.3-.5,2.75.2,3.18,1.52l1.99,6.12c.4,1.24-.24,2.58-1.47,3.03Z" fill="#21344f" stroke-width="0"/><path d="m632.36,146.62l-2.62.97c-1.33.49-2.8-.25-3.19-1.62l-1.75-6.18c-.34-1.21.3-2.48,1.47-2.93l2.38-.91c1.3-.5,2.75.2,3.18,1.52l1.99,6.12c.4,1.24-.24,2.58-1.47,3.03Z" fill="#21344f" stroke-width="0"/><path d="m643.04,142.55l-2.62.97c-1.33.49-2.8-.25-3.19-1.62l-1.75-6.18c-.34-1.21.3-2.48,1.47-2.93l2.38-.91c1.3-.5,2.75.2,3.18,1.52l1.99,6.12c.4,1.24-.24,2.58-1.47,3.03Z" fill="#21344f" stroke-width="0"/><path d="m653.5,138.28l-2.62.97c-1.33.49-2.8-.25-3.19-1.62l-1.75-6.18c-.34-1.21.3-2.48,1.47-2.93l2.38-.91c1.3-.5,2.75.2,3.18,1.52l1.99,6.12c.4,1.24-.24,2.58-1.47,3.03Z" fill="#21344f" stroke-width="0"/><path d="m752.85,57.68s-34.88-18.39-82.12-6.84c-23.56,5.76-309.31,115.24-309.31,115.24" fill="none" stroke="#538cb7" stroke-miterlimit="10" stroke-width="1.72"/><path d="m340.6,174.43h-35.23c-3.29,0-6.47-1.14-9.01-3.23-6.31-5.2-20.43-14.83-38.34-14.83s-29.63,7.49-35.24,11.83c-2.54,1.96-5.69,2.96-8.9,2.88l-77.15-1.81" fill="none" stroke="#538cb7" stroke-miterlimit="10" stroke-width="1.72"/></g></g></g></svg>