<?xml version="1.0" encoding="UTF-8"?><svg id="Layer_2" xmlns="http://www.w3.org/2000/svg" viewBox="0 0 288.34 288.34"><defs><style>.cls-1{stroke-width:0px;}</style></defs><g id="TEXTS"><g id="OBJECTS"><path class="cls-1" d="m0,0h69.6v69.6H0V0Zm79.54,0h9.94v9.94h-9.94V0Zm19.89,0h9.94v9.94h-9.94V0Zm29.83,0h19.89v9.94h9.94v9.94h-9.94v9.94h-9.94v-9.94h-9.94v49.71h9.94v19.89h9.94v9.94h-19.89v-19.89h-9.94v-29.83h-9.94v-29.83h9.94v-9.94h9.94V0Zm29.83,0h9.94v9.94h-9.94V0Zm19.89,0h9.94v9.94h-9.94V0Zm39.77,0h69.6v69.6h-69.6V0ZM9.94,9.94v49.71h49.71V9.94H9.94Zm79.54,0h9.94v19.89h-9.94V9.94Zm99.43,0h9.94v9.94h-9.94v-9.94Zm39.77,0v49.71h49.71V9.94h-49.71ZM19.89,19.89h29.83v29.83h-29.83v-29.83Zm149.14,0h19.89v9.94h9.94v9.94h-9.94v9.94h-9.94v9.94h-9.94v9.94h9.94v19.89h-9.94v-9.94h-19.89v-9.94h9.94v-19.89h9.94v-9.94h9.94v-9.94h-9.94v-9.94Zm69.6,0h29.83v29.83h-29.83v-29.83Zm-159.09,9.94h9.94v9.94h9.94v9.94h-9.94v39.77h-9.94v9.94h9.94v9.94h-9.94v29.83h-9.94v-9.94h-19.89v-9.94h19.89v-9.94H19.89v-9.94h49.71v-9.94h-9.94v-9.94h19.89V29.83Zm19.89,19.89h9.94v19.89h-9.94v-19.89Zm89.49,0h19.89v19.89h-9.94v-9.94h-9.94v-9.94Zm-49.71,9.94h9.94v9.94h-9.94v-9.94Zm39.77,0h9.94v9.94h-9.94v-9.94ZM0,79.54h9.94v9.94h9.94v9.94h-9.94v9.94h9.94v9.94H0v-39.77Zm39.77,0h9.94v9.94h-9.94v-9.94Zm159.09,0h59.66v9.94h19.89v-9.94h9.94v39.77h-9.94v9.94h9.94v29.83h-9.94v9.94h9.94v79.54h-9.94v9.94h9.94v19.89h-9.94v9.94h-9.94v-19.89h-9.94v19.89h-59.66v-19.89h-19.89v9.94h-9.94v-9.94h-9.94v-19.89h9.94v9.94h39.77v-9.94h-19.89v-9.94h-9.94v9.94h-9.94v-9.94h-19.89v-9.94h-9.94v19.89h9.94v9.94h-19.89v-19.89h-19.89v-9.94h-9.94v-9.94h19.89v9.94h9.94v-9.94h29.83v9.94h9.94v-9.94h9.94v-9.94h19.89v-49.71h-19.89v9.94h-9.94v-9.94h-19.89v-9.94h-9.94v19.89h9.94v9.94h-29.83v9.94h-9.94v9.94h-9.94v-9.94h-9.94v-9.94h-19.89v-9.94h19.89v-9.94h-9.94v-9.94h9.94v-9.94h29.83v19.89h-9.94v-9.94h-9.94v9.94h9.94v9.94h-9.94v9.94h9.94v-9.94h19.89v-29.83h29.83v9.94h9.94v-9.94h9.94v9.94h19.89v-9.94h19.89v-9.94h49.71v-19.89h9.94v-9.94h-39.77v9.94h19.89v9.94h-39.77v-19.89h-9.94v-9.94h-9.94v-9.94Zm-109.37,9.94h19.89v9.94h-19.89v-9.94Zm69.6,0h9.94v9.94h19.89v9.94h-9.94v19.89h-59.66v-9.94h-9.94v9.94h-9.94v-9.94h-9.94v-9.94h19.89v-9.94h9.94v9.94h9.94v9.94h9.94v-9.94h9.94v9.94h19.89v-9.94h-9.94v-19.89Zm39.77,9.94h9.94v9.94h-9.94v-9.94Zm-9.94,9.94h9.94v9.94h19.89v9.94h-29.83v-19.89Zm-169.03,9.94h9.94v19.89h9.94v-9.94h9.94v19.89h-9.94v39.77h9.94v-9.94h19.89v9.94h-9.94v9.94h19.89v-9.94h9.94v19.89h9.94v9.94h-9.94v9.94h-9.94v-19.89h-39.77v-9.94h-9.94v-29.83h-9.94v-9.94h9.94v-9.94H9.94v-9.94H0v-9.94h19.89v-9.94Zm159.09,9.94h9.94v9.94h-9.94v-9.94Zm-119.31,9.94h9.94v9.94h-9.94v-9.94Zm178.97,0v9.94h-19.89v9.94h-9.94v29.83h9.94v9.94h9.94v-9.94h19.89v9.94h9.94v9.94h-9.94v9.94h19.89v9.94h-19.89v9.94h9.94v9.94h-39.77v19.89h9.94v9.94h9.94v-9.94h9.94v-9.94h19.89v-19.89h9.94v-39.77h-9.94v-9.94h9.94v-9.94h-9.94v-29.83h9.94v-9.94h-9.94v9.94h-19.89v-9.94h-9.94ZM0,149.14h9.94v19.89h9.94v9.94H0v-29.83Zm59.66,9.94h9.94v9.94h-9.94v-9.94Zm169.03,0h9.94v9.94h19.89v9.94h-39.77v-9.94h9.94v-9.94Zm-69.6,9.94h9.94v19.89h-9.94v-19.89Zm19.89,0h9.94v29.83h-9.94v9.94h-49.71v-9.94h9.94v-9.94h9.94v9.94h19.89v-9.94h9.94v-19.89Zm79.54,9.94h9.94v9.94h-9.94v-9.94ZM0,198.86h29.83v9.94H0v-9.94Zm109.37,0h9.94v9.94h-9.94v-9.94Zm9.94,9.94h9.94v9.94h-9.94v-9.94Zm89.49,0v29.83h29.83v-29.83h-29.83ZM0,218.74h69.6v69.6H0v-69.6Zm218.74,0h9.94v9.94h-9.94v-9.94Zm-208.8,9.94v49.71h49.71v-49.71H9.94Zm9.94,9.94h29.83v29.83h-29.83v-29.83Zm59.66,0h19.89v49.71h-19.89v-9.94h9.94v-29.83h-9.94v-9.94Zm29.83,9.94h9.94v9.94h-9.94v-9.94Zm9.94,9.94h9.94v9.94h-9.94v-9.94Zm-9.94,9.94h9.94v9.94h19.89v9.94h-29.83v-19.89Zm29.83,0h9.94v9.94h-9.94v-9.94Zm9.94,9.94h9.94v9.94h-9.94v-9.94Zm29.83,0h9.94v9.94h-9.94v-9.94Z"/></g></g></svg>